<svg preserveAspectRatio="none" width="18" height="15" viewBox="0 0 18.3331 14.9998" fill="none" xmlns="http://www.w3.org/2000/svg">
<g id="CameraIcon">
<path d="M10.8307 0.833324C11.1314 0.83332 11.4264 0.914646 11.6846 1.06868C11.9428 1.22272 12.1545 1.44374 12.2974 1.70831L12.7024 2.45831C12.8452 2.72288 13.0569 2.9439 13.3151 3.09793C13.5733 3.25197 13.8683 3.3333 14.169 3.3333H15.8332C16.2752 3.3333 16.6991 3.50889 17.0117 3.82145C17.3242 4.134 17.4998 4.55792 17.4998 4.99994V12.4999C17.4998 12.9419 17.3242 13.3658 17.0117 13.6784C16.6991 13.9909 16.2752 14.1665 15.8332 14.1665H2.49997C2.05795 14.1665 1.63403 13.9909 1.32147 13.6784C1.00892 13.3658 0.833324 12.9419 0.833324 12.4999V4.99994C0.833324 4.55792 1.00892 4.134 1.32147 3.82145C1.63403 3.50889 2.05795 3.3333 2.49997 3.3333H4.16412C4.46447 3.33331 4.75924 3.25217 5.01726 3.09844C5.27528 2.94471 5.48697 2.72411 5.62994 2.45997L6.03743 1.70665C6.1804 1.44251 6.39208 1.22191 6.65011 1.06818C6.90813 0.914454 7.2029 0.833307 7.50325 0.833324H10.8307Z" stroke="#637069" stroke-width="1.66665" stroke-linecap="round" stroke-linejoin="round"/>
<path d="M9.16656 10.8332C10.5473 10.8332 11.6665 9.71394 11.6665 8.33324C11.6665 6.95254 10.5473 5.83327 9.16656 5.83327C7.78587 5.83327 6.66659 6.95254 6.66659 8.33324C6.66659 9.71394 7.78587 10.8332 9.16656 10.8332Z" stroke="#637069" stroke-width="1.66665" stroke-linecap="round" stroke-linejoin="round"/>
</g>
</svg>
