<svg viewBox="0 0 20 20" fill="none" xmlns="http://www.w3.org/2000/svg">
<path d="M10.691 1.817C10.474 1.718 10.238 1.666 10 1.666C9.761 1.666 9.525 1.718 9.308 1.817L2.167 5.066C2.019 5.132 1.893 5.238 1.805 5.374C1.716 5.509 1.669 5.667 1.669 5.829C1.669 5.99 1.716 6.149 1.805 6.284C1.893 6.419 2.019 6.526 2.167 6.591L9.316 9.849C9.533 9.948 9.769 10 10.008 10C10.246 10 10.482 9.948 10.699 9.849L17.849 6.6C17.997 6.534 18.122 6.428 18.211 6.292C18.299 6.157 18.346 5.999 18.346 5.837C18.346 5.676 18.299 5.517 18.211 5.382C18.122 5.247 17.997 5.14 17.849 5.075L10.691 1.817Z" stroke="#637069" stroke-width="1.667" stroke-linecap="round" stroke-linejoin="round"/>
<path d="M1.667 10C1.666 10.159 1.711 10.315 1.797 10.449C1.883 10.584 2.005 10.691 2.15 10.758L9.316 14.016C9.532 14.114 9.766 14.164 10.003 14.164C10.241 14.164 10.475 14.114 10.691 14.016L17.84 10.766C17.988 10.7 18.113 10.592 18.2 10.456C18.288 10.32 18.333 10.161 18.332 10" stroke="#637069" stroke-width="1.667" stroke-linecap="round" stroke-linejoin="round"/>
<path d="M1.667 14.166C1.666 14.325 1.711 14.481 1.797 14.616C1.883 14.75 2.005 14.857 2.15 14.924L9.316 18.182C9.532 18.28 9.766 18.33 10.003 18.33C10.241 18.33 10.475 18.28 10.691 18.182L17.84 14.932C17.988 14.866 18.113 14.758 18.2 14.622C18.288 14.486 18.333 14.327 18.332 14.166" stroke="#637069" stroke-width="1.667" stroke-linecap="round" stroke-linejoin="round"/>
</svg>
