<svg width="32" height="32" viewBox="0 0 32 32" fill="none" xmlns="http://www.w3.org/2000/svg">
<path d="M20.5563 16.1646L21.7025 15.025H21.6892C22.3027 14.3893 22.6389 13.5361 22.6239 12.6527C22.6089 11.7693 22.2439 10.928 21.6092 10.3135C20.9874 9.71384 20.1573 9.37877 19.2934 9.37877C18.4296 9.37877 17.5994 9.71384 16.9776 10.3135L15.8314 11.4531M11.4464 15.8314L10.3068 16.971C9.6933 17.6067 9.35714 18.4599 9.37213 19.3433C9.38712 20.2267 9.75205 21.068 10.3868 21.6825C11.0086 22.2822 11.8388 22.6172 12.7026 22.6172C13.5664 22.6172 14.3966 22.2822 15.0184 21.6825L16.1579 20.5429M13.3323 9.33386V11.3331M9.33386 13.3323H11.3331M18.6637 20.6629V22.6622M20.6629 18.6637H22.6621" stroke="#999999" stroke-width="1.33283" stroke-linecap="round" stroke-linejoin="round"/>
</svg>
