<svg viewBox="0 0 20 20" fill="none" xmlns="http://www.w3.org/2000/svg">
<path d="M17.75 12.75C17.936 12.936 18.084 13.156 18.185 13.4C18.286 13.643 18.338 13.903 18.338 14.167C18.338 14.43 18.286 14.69 18.185 14.934C18.084 15.177 17.936 15.397 17.75 15.583L15.583 17.75C15.397 17.936 15.177 18.084 14.934 18.185C14.69 18.286 14.43 18.338 14.167 18.338C13.903 18.338 13.643 18.286 13.4 18.185C13.156 18.084 12.936 17.936 12.75 17.75L2.25 7.25C1.875 6.874 1.665 6.364 1.665 5.833C1.665 5.302 1.875 4.793 2.25 4.417L4.417 2.25C4.793 1.875 5.302 1.665 5.833 1.665C6.364 1.665 6.874 1.875 7.25 2.25L17.75 12.75Z" stroke="#D08700" stroke-width="1.667" stroke-linecap="round" stroke-linejoin="round"/>
<path d="M12.083 10.417L13.75 8.75" stroke="#D08700" stroke-width="1.667" stroke-linecap="round" stroke-linejoin="round"/>
<path d="M9.583 7.917L11.25 6.25" stroke="#D08700" stroke-width="1.667" stroke-linecap="round" stroke-linejoin="round"/>
<path d="M7.083 5.417L8.75 3.75" stroke="#D08700" stroke-width="1.667" stroke-linecap="round" stroke-linejoin="round"/>
<path d="M14.583 12.917L16.25 11.25" stroke="#D08700" stroke-width="1.667" stroke-linecap="round" stroke-linejoin="round"/>
</svg>
