<svg width="32" height="32" viewBox="0 0 32 32" fill="none" xmlns="http://www.w3.org/2000/svg">
<path d="M14.6652 16.6644C14.9514 17.0471 15.3165 17.3636 15.7358 17.5927C16.1551 17.8218 16.6188 17.958 17.0954 17.9922C17.572 18.0263 18.0503 17.9575 18.498 17.7905C18.9457 17.6235 19.3522 17.3622 19.69 17.0243L21.6892 15.0251C22.2962 14.3966 22.632 13.5549 22.6244 12.6813C22.6169 11.8076 22.2664 10.9719 21.6486 10.3541C21.0308 9.73632 20.1951 9.38589 19.3215 9.3783C18.4478 9.37071 17.6061 9.70656 16.9777 10.3135L15.8314 11.4531M17.3309 15.3316C17.0447 14.949 16.6796 14.6324 16.2602 14.4034C15.8409 14.1743 15.3773 14.038 14.9007 14.0039C14.4241 13.9698 13.9458 14.0385 13.4981 14.2055C13.0504 14.3725 12.6439 14.6339 12.3061 14.9718L10.3069 16.971C9.69991 17.5994 9.36406 18.4411 9.37165 19.3148C9.37924 20.1885 9.72967 21.0242 10.3475 21.642C10.9653 22.2598 11.801 22.6102 12.6746 22.6178C13.5483 22.6254 14.39 22.2895 15.0184 21.6826L16.158 20.543" stroke="#6FB96F" stroke-width="1.33283" stroke-linecap="round" stroke-linejoin="round"/>
</svg>
