<svg preserveAspectRatio="none" width="100%" height="100%" overflow="visible" style="display: block;" viewBox="0 0 14.6662 14.6662" fill="none" xmlns="http://www.w3.org/2000/svg">
<path id="LengthIcon" d="M8.99776 7.66494L10.3306 6.33211M6.99852 5.6657L8.33134 4.33287M4.99927 3.66646L6.3321 2.33363M10.997 9.66418L12.3298 8.33135M13.5294 9.53089C13.6785 9.67948 13.7968 9.85604 13.8775 10.0504C13.9582 10.2449 13.9998 10.4533 13.9998 10.6638C13.9998 10.8743 13.9582 11.0827 13.8775 11.2771C13.7968 11.4715 13.6785 11.6481 13.5294 11.7967L11.7967 13.5294C11.6481 13.6785 11.4715 13.7968 11.2771 13.8775C11.0827 13.9582 10.8743 13.9998 10.6638 13.9998C10.4533 13.9998 10.2449 13.9582 10.0504 13.8775C9.85604 13.7968 9.67948 13.6785 9.53089 13.5294L1.13407 5.13256C0.834558 4.83159 0.666414 4.42426 0.666414 3.99965C0.666414 3.57505 0.834558 3.16772 1.13407 2.86675L2.86675 1.13407C3.16772 0.834558 3.57505 0.666414 3.99965 0.666414C4.42426 0.666414 4.83159 0.834558 5.13256 1.13407L13.5294 9.53089Z" stroke="#717182" stroke-width="1.33283" stroke-linecap="round" stroke-linejoin="round"/>
</svg>
