<svg preserveAspectRatio="none" overflow="visible" viewBox="0 0 19.9998 19.9998" fill="none" xmlns="http://www.w3.org/2000/svg">
<path d="M9.99989 2.49997C9.00534 3.49452 8.4466 4.84342 8.4466 6.24993C8.4466 7.65644 9.00534 9.00534 9.99989 9.99989C10.9944 10.9944 12.3433 11.5532 13.7498 11.5532C15.1564 11.5532 16.5053 10.9944 17.4998 9.99989C17.4998 11.4832 17.0599 12.9333 16.2358 14.1666C15.4117 15.4 14.2404 16.3613 12.87 16.9289C11.4995 17.4966 9.99157 17.6451 8.53673 17.3557C7.08189 17.0663 5.74553 16.352 4.69665 15.3031C3.64776 14.2542 2.93347 12.9179 2.64408 11.463C2.35469 10.0082 2.50322 8.50022 3.07087 7.12979C3.63852 5.75936 4.5998 4.58804 5.83316 3.76394C7.06651 2.93983 8.51654 2.49997 9.99989 2.49997Z" stroke="#717182" stroke-width="1.66665" stroke-linecap="round" stroke-linejoin="round"/>
</svg>