<svg viewBox="0 0 16 16" fill="none" xmlns="http://www.w3.org/2000/svg">
<path d="M14.659 11.3274C14.659 11.6809 14.5186 12.0198 14.2687 12.2698C14.0188 12.5197 13.6798 12.6601 13.3264 12.6601H4.54963C4.19622 12.6602 3.85732 12.8006 3.60746 13.0505L2.14022 14.5178C2.07406 14.5839 1.98977 14.629 1.898 14.6472C1.80624 14.6655 1.71113 14.6561 1.62469 14.6203C1.53825 14.5845 1.46437 14.5239 1.41239 14.4461C1.3604 14.3683 1.33265 14.2768 1.33264 14.1833V3.3316C1.33264 2.97816 1.47304 2.6392 1.72296 2.38928C1.97288 2.13936 2.31184 1.99896 2.66528 1.99896H13.3264C13.6798 1.99896 14.0188 2.13936 14.2687 2.38928C14.5186 2.6392 14.659 2.97816 14.659 3.3316V11.3274Z" stroke="#0A0A0A" stroke-width="1.33264" stroke-linecap="round" stroke-linejoin="round"/>
</svg>
