<svg preserveAspectRatio="none" width="48" height="48" viewBox="0 0 47.9995 47.9995" fill="none" xmlns="http://www.w3.org/2000/svg">
<g id="ImageIcon">
<path id="Vector" d="M37.9996 5.99993H9.99989C7.79077 5.99993 5.99993 7.79077 5.99993 9.99989V37.9996C5.99993 40.2087 7.79077 41.9995 9.99989 41.9995H37.9996C40.2087 41.9995 41.9995 40.2087 41.9995 37.9996V9.99989C41.9995 7.79077 40.2087 5.99993 37.9996 5.99993Z" stroke="#717182" stroke-width="3.99995" stroke-linecap="round" stroke-linejoin="round"/>
<path id="Vector_2" d="M17.9998 21.9998C20.2089 21.9998 21.9998 20.2089 21.9998 17.9998C21.9998 15.7907 20.2089 13.9998 17.9998 13.9998C15.7907 13.9998 13.9998 15.7907 13.9998 17.9998C13.9998 20.2089 15.7907 21.9998 17.9998 21.9998Z" stroke="#717182" stroke-width="3.99995" stroke-linecap="round" stroke-linejoin="round"/>
<path id="Vector_3" d="M41.9995 29.9997L35.8276 23.8277C35.0775 23.0779 34.0603 22.6566 32.9996 22.6566C31.939 22.6566 30.9218 23.0779 30.1717 23.8277L11.9999 41.9995" stroke="#717182" stroke-width="3.99995" stroke-linecap="round" stroke-linejoin="round"/>
</g>
</svg>
