<svg preserveAspectRatio="none" overflow="visible" viewBox="0 0 19.9986 19.9986" fill="none" xmlns="http://www.w3.org/2000/svg">
<path d="M8.55605 17.4987C8.70233 17.7521 8.91271 17.9624 9.16605 18.1087C9.41938 18.2549 9.70676 18.3319 9.99928 18.3319C10.2918 18.3319 10.5792 18.2549 10.8325 18.1087C11.0859 17.9624 11.2962 17.7521 11.4425 17.4987" stroke="#717182" stroke-width="1.66655" stroke-linecap="round" stroke-linejoin="round"/>
<path d="M2.71814 12.7707C2.60928 12.8901 2.53744 13.0384 2.51136 13.1978C2.48528 13.3572 2.50608 13.5207 2.57124 13.6685C2.63639 13.8163 2.74308 13.942 2.87834 14.0302C3.01359 14.1185 3.17159 14.1655 3.33309 14.1656H16.6655C16.827 14.1657 16.985 14.1188 17.1203 14.0307C17.2557 13.9427 17.3625 13.8171 17.4278 13.6694C17.4931 13.5218 17.5141 13.3583 17.4883 13.1989C17.4624 13.0395 17.3908 12.891 17.2821 12.7716C16.1738 11.6292 14.9989 10.4151 14.9989 6.66619C14.9989 5.3402 14.4722 4.06852 13.5346 3.13091C12.5969 2.19329 11.3253 1.66655 9.99928 1.66655C8.67329 1.66655 7.40161 2.19329 6.464 3.13091C5.52638 4.06852 4.99964 5.3402 4.99964 6.66619C4.99964 10.4151 3.82389 11.6292 2.71814 12.7707Z" stroke="#717182" stroke-width="1.66655" stroke-linecap="round" stroke-linejoin="round"/>
</svg>