<svg preserveAspectRatio="none" overflow="visible" viewBox="0 0 19.9986 19.9986" fill="none" xmlns="http://www.w3.org/2000/svg">
<path d="M8.05859 3.44644C8.1045 2.96343 8.32884 2.51488 8.68779 2.18843C9.04674 1.86199 9.5145 1.68109 9.9997 1.68109C10.4849 1.68109 10.9527 1.86199 11.3116 2.18843C11.6705 2.51488 11.8949 2.96343 11.9408 3.44644C11.9684 3.75847 12.0708 4.05925 12.2392 4.32333C12.4077 4.58741 12.6373 4.80702 12.9086 4.96356C13.1799 5.12011 13.485 5.20898 13.7979 5.22267C14.1109 5.23635 14.4225 5.17443 14.7064 5.04216C15.1473 4.84199 15.6469 4.81303 16.108 4.96091C16.5691 5.10878 16.9586 5.42293 17.2009 5.84219C17.4431 6.26146 17.5206 6.75585 17.4184 7.22915C17.3162 7.70244 17.0416 8.12079 16.648 8.40275C16.3916 8.58261 16.1824 8.82156 16.0379 9.09939C15.8935 9.37722 15.8181 9.68575 15.8181 9.99889C15.8181 10.312 15.8935 10.6206 16.0379 10.8984C16.1824 11.1762 16.3916 11.4152 16.648 11.595C17.0416 11.877 17.3162 12.2953 17.4184 12.7686C17.5206 13.2419 17.4431 13.7363 17.2009 14.1556C16.9586 14.5748 16.5691 14.889 16.108 15.0369C15.6469 15.1847 15.1473 15.1558 14.7064 14.9556C14.4225 14.8233 14.1109 14.7614 13.7979 14.7751C13.485 14.7888 13.1799 14.8777 12.9086 15.0342C12.6373 15.1908 12.4077 15.4104 12.2392 15.6744C12.0708 15.9385 11.9684 16.2393 11.9408 16.5513C11.8949 17.0343 11.6705 17.4829 11.3116 17.8093C10.9527 18.1358 10.4849 18.3167 9.9997 18.3167C9.5145 18.3167 9.04674 18.1358 8.68779 17.8093C8.32884 17.4829 8.1045 17.0343 8.05859 16.5513C8.03104 16.2392 7.92868 15.9383 7.76016 15.6741C7.59165 15.4099 7.36195 15.1903 7.09052 15.0337C6.81909 14.8771 6.51392 14.7883 6.20087 14.7747C5.88782 14.7611 5.5761 14.8232 5.29212 14.9556C4.85122 15.1558 4.35162 15.1847 3.89055 15.0369C3.42948 14.889 3.03992 14.5748 2.7977 14.1556C2.55548 13.7363 2.47792 13.2419 2.58011 12.7686C2.68231 12.2953 2.95695 11.877 3.35059 11.595C3.60692 11.4152 3.81617 11.1762 3.96062 10.8984C4.10508 10.6206 4.18049 10.312 4.18049 9.99889C4.18049 9.68575 4.10508 9.37722 3.96062 9.09939C3.81617 8.82156 3.60692 8.58261 3.35059 8.40275C2.95751 8.12064 2.68335 7.70247 2.5814 7.22949C2.47945 6.75651 2.55699 6.26252 2.79895 5.84353C3.04091 5.42454 3.43001 5.11047 3.89063 4.96237C4.35124 4.81426 4.85047 4.8427 5.29128 5.04216C5.57523 5.17443 5.88686 5.23635 6.1998 5.22267C6.51275 5.20898 6.81779 5.12011 7.0891 4.96356C7.36042 4.80702 7.59003 4.58741 7.7585 4.32333C7.92696 4.05925 8.02932 3.75847 8.05692 3.44644" stroke="#717182" stroke-width="1.66655" stroke-linecap="round" stroke-linejoin="round"/>
<path d="M9.99928 12.4991C11.3799 12.4991 12.4991 11.3799 12.4991 9.99928C12.4991 8.61867 11.3799 7.49946 9.99928 7.49946C8.61867 7.49946 7.49946 8.61867 7.49946 9.99928C7.49946 11.3799 8.61867 12.4991 9.99928 12.4991Z" stroke="#717182" stroke-width="1.66655" stroke-linecap="round" stroke-linejoin="round"/>
</svg>