<svg viewBox="0 0 15.9998 15.9998" fill="none" xmlns="http://www.w3.org/2000/svg">
  <path d="M3.99995 1.33332L1.99998 3.99995V13.3332C1.99998 13.6868 2.14045 14.0259 2.3905 14.276C2.64054 14.526 2.97968 14.6665 3.3333 14.6665H12.6665C13.0201 14.6665 13.3593 14.526 13.6093 14.276C13.8594 14.0259 13.9998 13.6868 13.9998 13.3332V3.99995L11.9999 1.33332H3.99995Z" stroke="white" stroke-width="1.33332" stroke-linecap="round" stroke-linejoin="round"/>
  <path d="M1.99998 3.99995H13.9998" stroke="white" stroke-width="1.33332" stroke-linecap="round" stroke-linejoin="round"/>
  <path d="M10.6665 6.66659C10.6665 7.37383 10.3856 8.0521 9.88551 8.55219C9.38541 9.05228 8.70715 9.33323 7.99991 9.33323C7.29267 9.33323 6.6144 9.05228 6.11431 8.55219C5.61422 8.0521 5.33327 7.37383 5.33327 6.66659" stroke="white" stroke-width="1.33332" stroke-linecap="round" stroke-linejoin="round"/>
</svg>
