<svg width="32" height="32" viewBox="0 0 32 32" fill="none" xmlns="http://www.w3.org/2000/svg">
<path d="M17.3309 19.3301H11.3332M17.3309 19.3301C17.3309 20.4343 18.226 21.3294 19.3301 21.3294C20.4343 21.3294 21.3294 20.4343 21.3294 19.3301C21.3294 18.226 20.4343 17.3309 19.3301 17.3309C18.226 17.3309 17.3309 18.226 17.3309 19.3301ZM20.663 12.666H14.6652M14.6652 12.666C14.6652 13.7701 13.7701 14.6652 12.666 14.6652C11.5618 14.6652 10.6667 13.7701 10.6667 12.666C10.6667 11.5618 11.5618 10.6667 12.666 10.6667C13.7701 10.6667 14.6652 11.5618 14.6652 12.666Z" stroke="#0A0A0A" stroke-width="1.33283" stroke-linecap="round" stroke-linejoin="round"/>
</svg>
