<svg viewBox="0 0 20 20" fill="none" xmlns="http://www.w3.org/2000/svg">
  <path d="M9.166 3.918C9.166 3.802 9.131 3.689 9.067 3.592C9.002 3.496 8.91 3.421 8.803 3.376C8.696 3.332 8.578 3.32 8.464 3.343C8.35 3.365 8.246 3.421 8.164 3.503L5.344 6.322C5.235 6.432 5.105 6.518 4.963 6.577C4.82 6.636 4.667 6.667 4.513 6.666H2.5C2.279 6.666 2.067 6.754 1.911 6.91C1.754 7.067 1.667 7.278 1.667 7.499V12.499C1.667 12.72 1.754 12.932 1.911 13.088C2.067 13.245 2.279 13.332 2.5 13.332H4.513C4.667 13.332 4.82 13.362 4.963 13.421C5.105 13.48 5.235 13.567 5.344 13.677L8.163 16.496C8.245 16.579 8.35 16.635 8.464 16.658C8.578 16.68 8.696 16.669 8.803 16.624C8.911 16.58 9.003 16.504 9.067 16.407C9.132 16.311 9.166 16.197 9.166 16.081V3.918Z" stroke="#717182" stroke-width="1.666" stroke-linecap="round" stroke-linejoin="round"/>
  <path d="M13.332 7.499C13.873 8.221 14.166 9.098 14.166 9.999C14.166 10.901 13.873 11.778 13.332 12.499" stroke="#717182" stroke-width="1.666" stroke-linecap="round" stroke-linejoin="round"/>
  <path d="M16.136 15.302C16.832 14.606 17.384 13.779 17.761 12.869C18.138 11.959 18.332 10.984 18.332 9.999C18.332 9.014 18.138 8.039 17.761 7.129C17.384 6.219 16.832 5.393 16.136 4.696" stroke="#717182" stroke-width="1.666" stroke-linecap="round" stroke-linejoin="round"/>
</svg>
