<svg viewBox="0 0 64 64" fill="none" xmlns="http://www.w3.org/2000/svg">
<path d="M26.6634 29.3297V45.3277" stroke="#717182" stroke-width="5.33268" stroke-linecap="round" stroke-linejoin="round"/>
<path d="M37.3287 29.3297V45.3277" stroke="#717182" stroke-width="5.33268" stroke-linecap="round" stroke-linejoin="round"/>
<path d="M50.6604 15.998V53.3268C50.6604 54.7411 50.0986 56.0975 49.0985 57.0975C48.0984 58.0976 46.7421 58.6594 45.3277 58.6594H18.6644C17.2501 58.6594 15.8937 58.0976 14.8936 57.0975C13.8935 56.0975 13.3317 54.7411 13.3317 53.3268V15.998" stroke="#717182" stroke-width="5.33268" stroke-linecap="round" stroke-linejoin="round"/>
<path d="M7.99901 15.998H55.9931" stroke="#717182" stroke-width="5.33268" stroke-linecap="round" stroke-linejoin="round"/>
<path d="M21.3307 15.998V10.6654C21.3307 9.25104 21.8925 7.89465 22.8926 6.89458C23.8927 5.89451 25.2491 5.33268 26.6634 5.33268H37.3287C38.743 5.33268 40.0994 5.89451 41.0995 6.89458C42.0996 7.89465 42.6614 9.25104 42.6614 10.6654V15.998" stroke="#717182" stroke-width="5.33268" stroke-linecap="round" stroke-linejoin="round"/>
</svg>
