<svg preserveAspectRatio="none" overflow="visible" viewBox="0 0 19.9998 19.9998" fill="none" xmlns="http://www.w3.org/2000/svg">
<path d="M9.99989 18.3331C14.6022 18.3331 18.3331 14.6022 18.3331 9.99989C18.3331 5.39757 14.6022 1.66665 9.99989 1.66665C5.39757 1.66665 1.66665 5.39757 1.66665 9.99989C1.66665 14.6022 5.39757 18.3331 9.99989 18.3331Z" stroke="#717182" stroke-width="1.66665" stroke-linecap="round" stroke-linejoin="round"/>
<path d="M7.57491 7.49992C7.77083 6.94298 8.15753 6.47335 8.66653 6.17421C9.17553 5.87507 9.77397 5.76572 10.3559 5.86553C10.9378 5.96534 11.4656 6.26787 11.8458 6.71953C12.226 7.1712 12.4341 7.74285 12.4332 8.33324C12.4332 9.99989 9.93322 10.8332 9.93322 10.8332" stroke="#717182" stroke-width="1.66665" stroke-linecap="round" stroke-linejoin="round"/>
<path d="M9.99989 14.1665H10.0082" stroke="#717182" stroke-width="1.66665" stroke-linecap="round" stroke-linejoin="round"/>
</svg>