<svg viewBox="0 0 19.9998 19.9998" fill="none" xmlns="http://www.w3.org/2000/svg">
  <path d="M8.28074 12.9165C8.20634 12.6281 8.05602 12.3649 7.84543 12.1543C7.63483 11.9437 7.37164 11.7934 7.08325 11.719L1.97081 10.4007C1.88359 10.376 1.80682 10.3234 1.75216 10.2511C1.69749 10.1787 1.66792 10.0906 1.66792 9.99989C1.66792 9.90922 1.69749 9.82102 1.75216 9.74868C1.80682 9.67635 1.88359 9.62381 1.97081 9.59906L7.08325 8.27991C7.37154 8.20558 7.63466 8.05539 7.84525 7.84494C8.05584 7.6345 8.20621 7.37149 8.28074 7.08325L9.59906 1.97081C9.62356 1.88324 9.67604 1.8061 9.74849 1.75114C9.82094 1.69619 9.90937 1.66644 10.0003 1.66644C10.0912 1.66644 10.1797 1.69619 10.2521 1.75114C10.3246 1.8061 10.377 1.88324 10.4015 1.97081L11.719 7.08325C11.7934 7.37164 11.9437 7.63483 12.1543 7.84543C12.3649 8.05602 12.6281 8.20634 12.9165 8.28074L18.029 9.59822C18.1169 9.62247 18.1944 9.6749 18.2497 9.74745C18.3049 9.82001 18.3348 9.90869 18.3348 9.99989C18.3348 10.0911 18.3049 10.1798 18.2497 10.2523C18.1944 10.3249 18.1169 10.3773 18.029 10.4015L12.9165 11.719C12.6281 11.7934 12.3649 11.9437 12.1543 12.1543C11.9437 12.3649 11.7934 12.6281 11.719 12.9165L10.4007 18.029C10.3762 18.1165 10.3237 18.1937 10.2513 18.2486C10.1788 18.3036 10.0904 18.3333 9.99947 18.3333C9.90854 18.3333 9.8201 18.3036 9.74766 18.2486C9.67521 18.1937 9.62273 18.1165 9.59822 18.029L8.28074 12.9165Z" stroke="#717182" stroke-width="1.66665" stroke-linecap="round" stroke-linejoin="round"/>
  <path d="M16.6665 2.49997V5.83327" stroke="#717182" stroke-width="1.66665" stroke-linecap="round" stroke-linejoin="round"/>
  <path d="M18.3331 4.16662H14.9998" stroke="#717182" stroke-width="1.66665" stroke-linecap="round" stroke-linejoin="round"/>
  <path d="M3.3333 14.1665V15.8332" stroke="#717182" stroke-width="1.66665" stroke-linecap="round" stroke-linejoin="round"/>
  <path d="M4.16662 14.9998H2.49997" stroke="#717182" stroke-width="1.66665" stroke-linecap="round" stroke-linejoin="round"/>
</svg>
